<svg id="visual" viewBox="0 0 900 600" width="900" height="600" xmlns="http://www.w3.org/2000/svg" xmlns:xlink="http://www.w3.org/1999/xlink" version="1.1"><rect x="0" y="0" width="900" height="600" fill="#f6fcff"></rect><path d="M0 508L7.5 510.2C15 512.3 30 516.7 45 516.5C60 516.3 75 511.7 90 510.3C105 509 120 511 135 518.7C150 526.3 165 539.7 180 548.5C195 557.3 210 561.7 225 556.5C240 551.3 255 536.7 270 534.7C285 532.7 300 543.3 315 542.5C330 541.7 345 529.3 360 524.2C375 519 390 521 405 523C420 525 435 527 450 533.2C465 539.3 480 549.7 495 555.5C510 561.3 525 562.7 540 565.2C555 567.7 570 571.3 585 572.5C600 573.7 615 572.3 630 568.5C645 564.7 660 558.3 675 553C690 547.7 705 543.3 720 545.3C735 547.3 750 555.7 765 551.3C780 547 795 530 810 521.2C825 512.3 840 511.7 855 516.5C870 521.3 885 531.7 892.5 536.8L900 542L900 601L892.5 601C885 601 870 601 855 601C840 601 825 601 810 601C795 601 780 601 765 601C750 601 735 601 720 601C705 601 690 601 675 601C660 601 645 601 630 601C615 601 600 601 585 601C570 601 555 601 540 601C525 601 510 601 495 601C480 601 465 601 450 601C435 601 420 601 405 601C390 601 375 601 360 601C345 601 330 601 315 601C300 601 285 601 270 601C255 601 240 601 225 601C210 601 195 601 180 601C165 601 150 601 135 601C120 601 105 601 90 601C75 601 60 601 45 601C30 601 15 601 7.5 601L0 601Z" fill="#0066FF" stroke-linecap="round" stroke-linejoin="miter"></path></svg>